<svg xmlns="http://www.w3.org/2000/svg" viewBox="0 0 64 64" role="img" aria-label="Fidget Spinner">
  <!-- Hot-pink favicon inspired by https://designer.alexanderklimov.ru/inkscape/samples/images/spinner.svg -->
  <rect width="64" height="64" rx="14" fill="#160016"/>
  <g transform="translate(32 32)" stroke-linejoin="round">
    <path
      d="M0-9c6.2 0 11.3 5.1 11.3 11.3 0 1.7-.4 3.4-1.1 4.9l9.2 5.3a13.5 13.5 0 1 1-6.1 10.5l-9.2-5.3a11.4 11.4 0 0 1-8.2 0l-9.2 5.3a13.5 13.5 0 1 1-6.1-10.5l9.2-5.3a11.2 11.2 0 0 1-1.1-4.9C-11.3-3.9-6.2-9 0-9Z"
      fill="#ff00ff"
      stroke="#070007"
      stroke-width="4"/>
    <circle cx="0" cy="2.3" r="8.8" fill="#ff5cff" stroke="#070007" stroke-width="2.5"/>
    <circle cx="-20" cy="24" r="9.6" fill="#ff5cff" stroke="#070007" stroke-width="2.5"/>
    <circle cx="20" cy="24" r="9.6" fill="#ff5cff" stroke="#070007" stroke-width="2.5"/>
    <circle cx="0" cy="2.3" r="3.5" fill="#fff0ff"/>
    <circle cx="-20" cy="24" r="3.7" fill="#fff0ff"/>
    <circle cx="20" cy="24" r="3.7" fill="#fff0ff"/>
  </g>
</svg>
